<svg xmlns="http://www.w3.org/2000/svg" width="32" height="32" viewBox="0 0 32 32" role="img" aria-label="AIGC Security logo">
  <defs>
    <linearGradient id="ring" x1="5.4" y1="4.6" x2="26.8" y2="27.4" gradientUnits="userSpaceOnUse">
      <stop offset="0" stop-color="#8ff7ff"/>
      <stop offset=".5" stop-color="#25c8f5"/>
      <stop offset="1" stop-color="#376bff"/>
    </linearGradient>
    <linearGradient id="inner" x1="9.2" y1="8" x2="24.8" y2="25.2" gradientUnits="userSpaceOnUse">
      <stop offset="0" stop-color="#7df7ff"/>
      <stop offset=".55" stop-color="#23b9ec"/>
      <stop offset="1" stop-color="#2146d8"/>
    </linearGradient>
    <filter id="softGlow" x="-40%" y="-40%" width="180%" height="180%">
      <feGaussianBlur stdDeviation="1.1" result="blur"/>
      <feMerge>
        <feMergeNode in="blur"/>
        <feMergeNode in="SourceGraphic"/>
      </feMerge>
    </filter>
  </defs>
  <path
    d="M26.9 14.9c.45 4.58-2.05 8.98-6.22 10.93-4.16 1.96-9.11.99-12.25-2.38-3.15-3.37-3.76-8.38-1.53-12.41 2.24-4.02 6.79-6.21 11.32-5.43"
    fill="none"
    stroke="url(#ring)"
    stroke-width="3.4"
    stroke-linecap="round"
    filter="url(#softGlow)"
  />
  <path
    d="M20.72 7.15c3.33 1.5 5.65 4.73 5.92 8.37"
    fill="none"
    stroke="#66efff"
    stroke-width="3.4"
    stroke-linecap="round"
    filter="url(#softGlow)"
  />
  <path
    d="M21.4 15.58c.24 2.14-.95 4.22-2.94 5.11-1.98.88-4.31.4-5.76-1.2-1.45-1.59-1.7-3.96-.63-5.83 1.08-1.88 3.2-2.88 5.31-2.5"
    fill="none"
    stroke="url(#inner)"
    stroke-width="2.7"
    stroke-linecap="round"
  />
  <path
    d="M11.45 9.04 7.37 8.5l1.34 3.94"
    fill="none"
    stroke="#7df7ff"
    stroke-width="2"
    stroke-linecap="round"
    stroke-linejoin="round"
  />
  <circle cx="16" cy="16" r="3.1" fill="#07111b"/>
  <circle cx="16" cy="16" r="1.35" fill="#73f4ff"/>
</svg>
